<svg width="60" height="60" viewBox="0 0 60 60" fill="none" xmlns="http://www.w3.org/2000/svg">
<path d="M30 60C46.5685 60 60 46.5685 60 30C60 13.4315 46.5685 0 30 0C13.4315 0 0 13.4315 0 30C0 46.5685 13.4315 60 30 60Z" fill="#111111"/>
<path d="M53.1172 27.8071L39.3643 14.9653C39.0777 14.7044 38.7218 14.5319 38.3394 14.4685C37.957 14.4051 37.5645 14.4536 37.209 14.6081C36.8536 14.7626 36.5504 15.0166 36.3359 15.3394C36.1214 15.6622 36.0047 16.0401 36 16.4277V22H9.0527C8.5566 22.005 8.06937 22.1322 7.6341 22.3703C7.19883 22.6084 6.82892 22.95 6.55706 23.365C6.28521 23.78 6.11979 24.2556 6.07542 24.7498C6.03106 25.2439 6.10912 25.7414 6.3027 26.1982L7.7715 29.57C7.8259 29.6955 7.85413 29.8307 7.85446 29.9675C7.85479 30.1043 7.82721 30.2397 7.7734 30.3654L6.2871 33.8115C6.0952 34.2681 6.0186 34.765 6.06405 35.2582C6.10951 35.7514 6.27561 36.2259 6.54772 36.6397C6.81984 37.0536 7.1896 37.3941 7.62441 37.6314C8.05922 37.8686 8.54571 37.9952 9.041 38H36V43.5723C36.0043 43.9601 36.1208 44.3384 36.3353 44.6616C36.5498 44.9847 36.8533 45.2389 37.209 45.3934C37.5647 45.548 37.9576 45.5963 38.3402 45.5326C38.7228 45.4688 39.0788 45.2957 39.3652 45.0342L53.1172 32.1929C53.4151 31.9106 53.6524 31.5706 53.8146 31.1936C53.9767 30.8165 54.0604 30.4104 54.0604 30C54.0604 29.5896 53.9767 29.1835 53.8146 28.8064C53.6524 28.4294 53.4151 28.0894 53.1172 27.8071Z" fill="white"/>
</svg>
