<svg width="60" height="60" viewBox="0 0 60 60" fill="none" xmlns="http://www.w3.org/2000/svg">
<path d="M30 60C13.4315 60 0 46.5685 0 30C0 13.4315 13.4315 0 30 0C46.5685 0 60 13.4315 60 30C60 46.5685 46.5685 60 30 60Z" fill="#111111"/>
<path d="M6.8828 27.8071L20.6357 14.9653C20.9223 14.7044 21.2782 14.5319 21.6606 14.4685C22.043 14.4051 22.4355 14.4536 22.791 14.6081C23.1464 14.7626 23.4496 15.0166 23.6641 15.3394C23.8786 15.6622 23.9953 16.0401 24 16.4277V22H50.9473C51.4434 22.005 51.9306 22.1322 52.3659 22.3703C52.8012 22.6084 53.1711 22.95 53.4429 23.365C53.7148 23.78 53.8802 24.2556 53.9246 24.7498C53.9689 25.2439 53.8909 25.7414 53.6973 26.1982L52.2285 29.57C52.1741 29.6955 52.1459 29.8307 52.1455 29.9675C52.1452 30.1043 52.1728 30.2397 52.2266 30.3654L53.7129 33.8115C53.9048 34.2681 53.9814 34.765 53.9359 35.2582C53.8905 35.7514 53.7244 36.2259 53.4523 36.6397C53.1802 37.0536 52.8104 37.3941 52.3756 37.6314C51.9408 37.8686 51.4543 37.9952 50.959 38H24V43.5723C23.9957 43.9601 23.8792 44.3384 23.6647 44.6616C23.4502 44.9847 23.1467 45.2389 22.791 45.3934C22.4353 45.548 22.0424 45.5963 21.6598 45.5326C21.2772 45.4688 20.9212 45.2957 20.6348 45.0342L6.8828 32.1929C6.58487 31.9106 6.34759 31.5706 6.18543 31.1936C6.02327 30.8165 5.93964 30.4104 5.93964 30C5.93964 29.5896 6.02327 29.1835 6.18543 28.8064C6.34759 28.4294 6.58487 28.0894 6.8828 27.8071Z" fill="white"/>
</svg>
